<svg width="122" height="28" viewBox="0 0 122 28" fill="none" xmlns="http://www.w3.org/2000/svg">
<g clip-path="url(#clip0_7801_112)">
<path d="M46.4764 18.5214H32.8148C32.8688 20.7006 33.4601 22.3893 34.5363 23.5874C35.1303 24.1965 35.8446 24.6715 36.6326 24.9813C37.4206 25.2911 38.2643 25.4286 39.1085 25.385C41.2887 25.3921 43.4015 24.6205 45.0753 23.2058V26.1473C43.3538 27.4001 41.1484 27.9995 38.3512 27.9995C35.608 27.9995 33.4571 27.1278 31.896 25.3303C30.3349 23.5328 29.5857 21.0818 29.5857 17.8132C29.5857 14.7628 30.4465 12.3113 32.1675 10.3503C32.9547 9.43043 33.9306 8.69553 35.0271 8.19685C36.1236 7.69817 37.3143 7.4477 38.5162 7.46292C41.0445 7.46292 42.9809 8.28044 44.3795 9.96657C45.7781 11.6016 46.4774 13.9433 46.4774 16.8848L46.4764 18.5214ZM43.3028 15.8522C43.3028 14.0547 42.8724 12.6383 42.0117 11.6578C41.5667 11.1553 41.0179 10.7581 40.4043 10.4945C39.7906 10.2309 39.1273 10.1074 38.4612 10.1326C37.7689 10.126 37.0826 10.2627 36.4443 10.5343C35.8061 10.806 35.2294 11.2069 34.7497 11.7125C33.6838 12.8408 33.021 14.2975 32.8668 15.8512H43.3028V15.8522Z" fill="#7DA7D9"/>
<path d="M60.0856 27.2918C59.178 27.7221 58.1824 27.9276 57.1809 27.8912C53.7919 27.8912 52.1244 25.9848 52.1244 22.1716V10.6242H48.7893V7.95343H52.1784V3.15971L55.298 2.12453V7.89825H60.1416V10.5674H55.298V21.5718C55.298 22.8793 55.5129 23.8051 55.9433 24.4045C56.3737 24.9491 57.1269 25.222 58.1487 25.222C58.8815 25.2313 59.5979 25.0022 60.1926 24.5685V27.2923L60.0856 27.2918Z" fill="#7DA7D9"/>
<path d="M78.6972 27.5095H64.6577V0.108831H67.8313V24.568H78.6972V27.5095Z" fill="#7DA7D9"/>
<path d="M96.2339 27.5095H93.1138V24.4591H93.0598C91.7152 26.8013 89.7247 28 87.1425 28C85.206 28 83.6999 27.5095 82.6237 26.4748C82.085 25.9475 81.6626 25.3106 81.3843 24.6061C81.106 23.9016 80.9782 23.1454 81.0092 22.3872C81.0092 18.7375 83.1611 16.6135 87.4104 16.0137L93.2197 15.1961C93.2197 11.875 91.8751 10.1847 89.2394 10.1847C86.9256 10.1938 84.692 11.0445 82.9456 12.5816V9.36774C84.9146 8.12941 87.1923 7.48743 89.5098 7.51759C94.0285 7.51759 96.3414 9.97015 96.3414 14.817V27.5095H96.2339ZM93.1678 17.5971L88.4876 18.2475C87.035 18.4652 85.9593 18.7922 85.2585 19.3369C84.5052 19.8274 84.1828 20.7532 84.1828 22.0607C84.1629 22.5046 84.2449 22.947 84.4222 23.3534C84.5996 23.7598 84.8675 24.119 85.205 24.4029C85.9581 25.037 86.9161 25.3668 87.8947 25.3288C88.6098 25.3489 89.3209 25.2134 89.9798 24.9313C90.6387 24.6492 91.2302 24.2272 91.7142 23.6937C92.2231 23.1391 92.6182 22.4877 92.8768 21.7772C93.1353 21.0668 93.252 20.3115 93.2202 19.555V17.5955L93.1678 17.5971Z" fill="#7DA7D9"/>
<path d="M103.065 26.8013C103.065 26.8013 98.3851 24.6226 98.707 17.5409V0.163504H101.773V11.3855H101.827C102.467 10.1668 103.431 9.15359 104.61 8.46051C105.788 7.76743 107.135 7.42206 108.497 7.46343C110.972 7.46343 112.908 8.33494 114.307 10.078C115.705 11.821 116.405 14.1633 116.405 17.105C116.405 20.3751 115.597 22.9881 114.038 24.9491C112.478 26.9101 110.326 27.8907 107.583 27.8907C106.009 27.9297 104.453 27.5544 103.065 26.8013ZM101.774 16.778V19.5019C101.748 21.0335 102.307 22.5161 103.334 23.6406C103.829 24.1932 104.436 24.6304 105.114 24.9219C105.792 25.2135 106.525 25.3525 107.261 25.3293C108.117 25.3664 108.969 25.1866 109.739 24.806C110.51 24.4255 111.174 23.8563 111.672 23.1501C112.748 21.6792 113.286 19.6637 113.286 17.1035C113.286 14.9243 112.802 13.2356 111.78 11.9828C111.303 11.3693 110.688 10.8808 109.985 10.5585C109.283 10.2362 108.514 10.0894 107.744 10.1306C106.925 10.1096 106.111 10.2693 105.358 10.5984C104.606 10.9276 103.933 11.4184 103.387 12.0369C102.286 13.3596 101.712 15.0497 101.774 16.778Z" fill="#7DA7D9"/>
<path d="M15.7071 15.9064L0 0V27.5095H8.60657V26.5837L15.7071 15.9064Z" fill="#005EB8"/>
<path d="M24.3137 24.6226L17.7511 17.9767L13.3403 24.6226H24.3137Z" fill="#0072BB"/>
<path d="M24.3135 24.6226H13.3401L17.7509 17.9767L26.089 5.5019H22.646L15.7069 15.9064L8.60645 26.5837V27.5095H27.1647V24.6226H24.3135Z" fill="#7DA7D9"/>
<path d="M120.548 27.51C121.35 27.51 122 26.8514 122 26.039C122 25.2266 121.35 24.568 120.548 24.568C119.746 24.568 119.095 25.2266 119.095 26.039C119.095 26.8514 119.746 27.51 120.548 27.51Z" fill="#AA55A1"/>
<path d="M10.543 0.163504H27.1648V4.19438H10.543C10.0233 4.18417 9.52848 3.96688 9.16597 3.58962C8.80345 3.21237 8.60243 2.70558 8.60651 2.1792C8.60229 1.65273 8.80326 1.14581 9.16579 0.768444C9.52832 0.391079 10.0232 0.173709 10.543 0.163504Z" fill="#AA55A1"/>
</g>
<defs>
<clipPath id="clip0_7801_112">
<rect width="122" height="28" fill="white"/>
</clipPath>
</defs>
</svg>
